<?xml version="1.0" encoding="UTF-8" standalone="no"?>
<!-- Created with Inkscape (http://www.inkscape.org/) -->

<svg
   width="120px"
   height="120px"
   viewBox="0 0 120 120"
   version="1.1"
   id="SVGRoot"
   sodipodi:docname="FruityBacon-Logo.svg"
   inkscape:version="1.1.2 (0a00cf5339, 2022-02-04)"
   xmlns:inkscape="http://www.inkscape.org/namespaces/inkscape"
   xmlns:sodipodi="http://sodipodi.sourceforge.net/DTD/sodipodi-0.dtd"
   xmlns="http://www.w3.org/2000/svg"
   xmlns:svg="http://www.w3.org/2000/svg">
  <sodipodi:namedview
     id="namedview45417"
     pagecolor="#ffffff"
     bordercolor="#666666"
     borderopacity="1.0"
     inkscape:pageshadow="2"
     inkscape:pageopacity="0.0"
     inkscape:pagecheckerboard="0"
     inkscape:document-units="px"
     showgrid="false"
     inkscape:zoom="6.1647026"
     inkscape:cx="95.949479"
     inkscape:cy="55.477129"
     inkscape:window-width="1920"
     inkscape:window-height="1024"
     inkscape:window-x="0"
     inkscape:window-y="27"
     inkscape:window-maximized="1"
     inkscape:current-layer="layer1"
     inkscape:snap-others="false"
     inkscape:snap-global="false" />
  <defs
     id="defs45412" />
  <g
     inkscape:label="Layer 1"
     inkscape:groupmode="layer"
     id="layer1">
    <path
       style="fill:#9932cc;stroke:#9932cc;stroke-width:1px;stroke-linecap:butt;stroke-linejoin:miter;stroke-opacity:1"
       d="M 1.4564097,85.947052 C 34.289195,118.66688 34.024083,118.34268 34.024083,118.34268 c 0,0 7.186635,-16.89069 22.776786,-22.828071 15.59015,-5.937379 38.574852,-6.237946 45.301281,-25.19537 6.72643,-18.957424 11.16488,-31.981757 11.46846,-33.623143 0.30358,-1.641385 -31.401574,-20.958231 -31.401574,-20.958231 0,0 -1.922517,28.255676 -14.488089,34.221519 C 55.115376,55.925227 39.764912,55.703143 28.608702,64.564361 17.452491,73.425578 1.4564097,85.947052 1.4564097,85.947052 Z"
       id="path45706" />
    <path
       style="fill:#ee82ee;stroke:#ee82ee;stroke-width:0.991805px;stroke-linecap:butt;stroke-linejoin:miter;stroke-opacity:1"
       d="m 6.0935492,90.492903 c 5.3493668,5.459298 5.6995008,5.695551 5.6995008,5.695551 0,0 18.254283,-19.605879 23.7836,-21.685947 5.529316,-2.08007 30.142506,-9.801061 33.1568,-11.499842 3.014296,-1.698779 6.220067,-3.022767 8.405714,-5.955497 2.185648,-2.932727 5.668706,-7.141622 6.917011,-10.132812 1.248304,-2.991191 8.497836,-25.24289 8.432231,-25.052049 -0.0656,0.190842 -4.891358,-3.39476 -5.088363,-2.906041 -0.197003,0.48872 -2.058638,8.418758 -2.907787,10.978989 -0.849149,2.560228 -2.501018,9.479182 -3.162533,10.928481 C 80.668206,42.313037 76.029355,51.81437 75.053687,52.815757 74.07802,53.817143 66.96482,59.168444 62.446373,60.070442 57.927927,60.972441 38.666325,66.48348 36.473975,67.49127 34.281626,68.499061 23.569719,74.534406 21.134903,76.571746 18.700086,78.609088 6.0935492,90.492903 6.0935492,90.492903 Z"
       id="path45906" />
    <path
       style="fill:#ee82ee;stroke:#ee82ee;stroke-width:1px;stroke-linecap:butt;stroke-linejoin:miter;stroke-opacity:1"
       d="m 18.151617,102.83364 9.772547,9.81029 c 0,0 2.786308,-8.6276 11.403848,-15.547073 8.61754,-6.919473 26.567039,-10.502672 33.006296,-12.45907 6.439257,-1.956397 6.601323,-1.071785 12.885881,-4.633133 6.284558,-3.561348 6.227163,-4.856098 9.526161,-11.540518 3.298998,-6.68442 14.31121,-35.636598 14.31121,-35.636598 l -8.97028,-5.804728 c 0,0 -5.907569,25.324564 -15.401504,37.435038 -9.493934,12.110475 -22.720975,8.339815 -31.823424,12.599908 -9.102449,4.260093 -14.26053,4.711221 -21.740831,12.130058 -7.480301,7.418837 -12.969904,13.645826 -12.969904,13.645826 z"
       id="path46221" />
    <path
       style="fill:#006400;stroke:#006400;stroke-width:1px;stroke-linecap:butt;stroke-linejoin:miter;stroke-opacity:1"
       d="m 95.125012,22.929166 c 2.550636,-5.39287 4.912648,-10.364854 4.937438,-6.332541 0.0248,4.032312 -0.66048,8.957266 -0.66048,8.957266 z"
       id="path46878" />
    <path
       style="fill:#00ff7f;stroke:#00ff7f;stroke-width:1px;stroke-linecap:butt;stroke-linejoin:miter;stroke-opacity:1"
       d="M 98.004246,17.816665 C 106.77715,16.987258 93.738559,0.36269624 92.272505,2.0694083 90.806452,3.7761213 90.323114,12.524708 98.004246,17.816665 Z"
       id="path47160" />
    <path
       style="fill:#00ff7f;stroke:#00ff7f;stroke-width:0.73635px;stroke-linecap:butt;stroke-linejoin:miter;stroke-opacity:1"
       d="m 99.53458,17.799236 c -2.056181,5.554199 14.5521,2.002579 13.70563,0.661401 -0.84646,-1.34118 -7.33802,-3.939341 -13.70563,-0.661401 z"
       id="path47160-3" />
  </g>
</svg>
